<svg width="485" height="66" viewBox="0 0 485 66" fill="none" xmlns="http://www.w3.org/2000/svg">
<path d="M32.6074 0C30.4216 0 28.2839 0.214555 26.2158 0.621688L26.8398 3.7734C28.707 3.40569 30.6354 3.21311 32.6074 3.21311C49.0254 3.21311 62.3368 16.5692 62.3368 33.0421C62.3368 41.2897 59.0034 48.7535 53.6109 54.1555L55.8708 56.4274C61.8437 50.4475 65.5392 42.1782 65.5392 33.0421C65.5392 14.7963 50.7925 0 32.6074 0Z" fill="#B1E34D"/>
<path d="M39.405 48.4581C37.411 49.2819 35.2249 49.7352 32.9342 49.7352C30.6435 49.7352 28.4181 49.2733 26.4068 48.4363C26.4068 48.4363 26.4068 48.4318 26.398 48.4318L22.7111 57.2811C13.1248 53.2837 6.38788 43.8285 6.38788 32.7997C6.38788 31.0083 6.56675 29.2601 6.90711 27.5688L16.3187 29.4432C16.3187 29.4432 16.323 29.4257 16.323 29.4171C17.2263 24.9574 19.8879 21.1344 23.5531 18.6978L14.6825 5.41077C5.82937 11.3046 0 21.3744 0 32.7997C0 50.9734 14.7436 65.7031 32.9342 65.7031C37.3805 65.7031 41.6215 64.8225 45.4917 63.2227L39.405 48.4581Z" fill="#B1E34D"/>
<path d="M32.8931 6.18384C31.1349 6.18384 29.4202 6.35512 27.7578 6.68862L28.3757 9.84056C29.8379 9.55078 31.3482 9.39717 32.8931 9.39717C45.7575 9.39717 56.185 19.9196 56.185 32.8915C56.185 39.3841 53.5738 45.262 49.3522 49.5157L51.6022 51.7895C56.4026 46.9565 59.3706 40.2751 59.3706 32.8915C59.3706 18.1418 47.5158 6.18384 32.8931 6.18384Z" fill="#B1E34D"/>
<path d="M32.4112 12.3676C31.084 12.3676 29.7872 12.5001 28.5293 12.7516L29.1451 15.9201C30.2035 15.7082 31.2921 15.5979 32.4112 15.5979C41.7146 15.5979 49.257 23.2725 49.257 32.7385C49.257 37.4736 47.3702 41.7588 44.3212 44.8611L46.5636 47.1517C50.1895 43.4624 52.4318 38.3695 52.4318 32.7385C52.4318 21.4894 43.4668 12.3676 32.4112 12.3676Z" fill="#B1E34D"/>
<path d="M108.295 26.0703C107.693 25.7892 106.9 25.4609 105.914 25.1015C104.928 24.7422 103.806 24.3985 102.564 24.0782C101.321 23.7578 99.9584 23.4843 98.4917 23.2657C97.0248 23.0468 95.526 22.9374 93.979 22.9374C92.7446 22.9374 91.6947 22.9766 90.821 23.0468C89.9473 23.125 89.218 23.2188 88.6247 23.3359C88.0317 23.4531 87.5587 23.5938 87.2141 23.7501C86.8694 23.9062 86.6048 24.0702 86.4125 24.2343C86.2283 24.3985 86.108 24.5625 86.0518 24.7266C85.9957 24.8906 85.9718 25.039 85.9718 25.1797C85.9718 25.6328 86.2041 26.0234 86.669 26.3671C87.1338 26.7031 87.7671 27.0078 88.5687 27.2734C89.3703 27.5391 90.3 27.7813 91.3661 28.0156C92.4321 28.2501 93.5623 28.4923 94.7565 28.7345C95.9509 28.9844 97.1852 29.2499 98.4596 29.5469C99.734 29.836 100.968 30.1797 102.163 30.5703C103.357 30.9609 104.487 31.414 105.553 31.9374C106.619 32.461 107.549 33.0625 108.351 33.7499C109.152 34.4452 109.785 35.2343 110.25 36.1406C110.715 37.0391 110.94 38.0702 110.94 39.2266C110.94 40.711 110.667 41.9922 110.13 43.0625C109.593 44.1328 108.872 45.0313 107.966 45.7656C107.06 46.4999 106.018 47.0937 104.832 47.5389C103.646 47.9844 102.403 48.3203 101.097 48.5625C99.7903 48.8047 98.4757 48.9608 97.1371 49.039C95.8064 49.1172 94.5321 49.1561 93.3297 49.1561C90.1877 49.1561 87.2701 48.9062 84.593 48.3985C81.9158 47.8906 79.5514 47.2657 77.4994 46.5155V39.1171C79.6075 40.2579 82.02 41.1562 84.7292 41.7969C87.4385 42.4454 90.3321 42.7657 93.4179 42.7657C95.2374 42.7657 96.7204 42.6719 97.8745 42.4843C99.0287 42.297 99.9184 42.0548 100.568 41.7657C101.217 41.4686 101.658 41.1562 101.882 40.8046C102.115 40.4609 102.227 40.1249 102.227 39.8125C102.227 39.3124 101.994 38.8829 101.537 38.5156C101.073 38.1484 100.439 37.828 99.638 37.5468C98.8364 37.2657 97.9066 37.0156 96.8406 36.7813C95.7746 36.5468 94.6444 36.3125 93.45 36.086C92.2558 35.8594 91.0214 35.6016 89.7629 35.3281C88.4966 35.0547 87.2701 34.7422 86.0759 34.3673C84.8816 34 83.7513 33.5702 82.6853 33.0781C81.6193 32.586 80.6895 32.0078 79.8879 31.3438C79.0866 30.6718 78.4533 29.8983 77.9884 29.0233C77.5236 28.1484 77.291 27.125 77.291 25.9688C77.291 24.6015 77.5394 23.4218 78.0284 22.4297C78.5173 21.4376 79.1907 20.5939 80.0324 19.8906C80.874 19.1876 81.8437 18.625 82.95 18.1875C84.056 17.75 85.2102 17.414 86.4285 17.1719C87.6468 16.9297 88.8812 16.7656 90.1317 16.6718C91.3821 16.578 92.5684 16.5391 93.6904 16.5391C94.9248 16.5391 96.1913 16.6016 97.4978 16.7187C98.8043 16.8359 100.087 17.0078 101.353 17.2265C102.62 17.4453 103.838 17.6952 105.016 17.9843C106.195 18.2734 107.285 18.5704 108.286 18.8829V26.0547L108.295 26.0703Z" fill="white"/>
<path d="M160.187 32.8595C160.187 35.5234 159.682 37.8672 158.68 39.9063C157.678 41.9453 156.243 43.6484 154.376 45.0157C152.508 46.3828 150.248 47.4141 147.587 48.1171C144.926 48.8204 141.936 49.1641 138.625 49.1641C135.315 49.1641 132.309 48.8124 129.64 48.1171C126.963 47.4218 124.687 46.3828 122.803 45.0157C120.92 43.6484 119.469 41.9453 118.451 39.9063C117.433 37.8672 116.928 35.5234 116.928 32.8595C116.928 30.1953 117.433 27.8515 118.451 25.8125C119.469 23.7734 120.92 22.0704 122.803 20.703C124.687 19.336 126.963 18.3047 129.64 17.6016C132.317 16.9063 135.315 16.5547 138.625 16.5547C141.936 16.5547 144.926 16.9063 147.587 17.6016C150.248 18.297 152.508 19.336 154.376 20.703C156.243 22.0704 157.678 23.7734 158.68 25.8125C159.682 27.8515 160.187 30.1953 160.187 32.8595ZM151.514 32.8595C151.514 31.7031 151.322 30.547 150.945 29.3985C150.568 28.2501 149.895 27.2188 148.933 26.2969C147.971 25.3829 146.657 24.6328 144.99 24.0625C143.323 23.4923 141.206 23.2032 138.625 23.2032C136.894 23.2032 135.379 23.3359 134.065 23.6015C132.75 23.8672 131.62 24.2265 130.666 24.6953C129.712 25.1641 128.911 25.7031 128.261 26.3281C127.612 26.9532 127.099 27.6173 126.715 28.3359C126.33 29.0546 126.057 29.7968 125.897 30.5703C125.737 31.3438 125.657 32.1093 125.657 32.8595C125.657 33.6094 125.737 34.3985 125.897 35.1797C126.057 35.9609 126.33 36.7108 126.715 37.4218C127.099 38.1327 127.62 38.8047 128.261 39.4139C128.911 40.0313 129.712 40.5703 130.666 41.0234C131.62 41.4843 132.758 41.8438 134.065 42.1016C135.379 42.3672 136.894 42.4999 138.625 42.4999C141.198 42.4999 143.323 42.2188 144.99 41.6406C146.657 41.0703 147.971 40.3281 148.933 39.4062C149.895 38.4923 150.568 37.453 150.945 36.3046C151.322 35.1561 151.514 34 151.514 32.8439V32.8595Z" fill="white"/>
<path d="M168.001 48.328V17.3438H176.585V41.539H199.79V48.328H168.001Z" fill="white"/>
<path d="M236.684 48.328L215.244 27.0467V48.328H206.659V17.3438H215.981L237.446 38.7188V17.3438H245.984V48.3203H236.684V48.328Z" fill="white"/>
<path d="M292.273 42.2657C291.486 43.6328 290.309 44.8282 288.729 45.8515C287.158 46.8751 285.194 47.6797 282.846 48.2735C280.498 48.8673 277.748 49.1641 274.597 49.1641C271.447 49.1641 268.69 48.8673 266.326 48.2735C263.962 47.6797 261.989 46.8751 260.418 45.8515C258.848 44.8282 257.67 43.6328 256.877 42.2657C256.081 40.8984 255.697 39.4376 255.697 37.8906V17.3516H264.258V34.8907C264.258 35.9297 264.394 36.9064 264.667 37.836C264.941 38.7579 265.444 39.5703 266.19 40.2579C266.936 40.9453 267.985 41.5 269.332 41.9064C270.679 42.3126 272.435 42.5156 274.597 42.5156C276.762 42.5156 278.484 42.3126 279.825 41.9064C281.163 41.5 282.213 40.9533 282.957 40.2579C283.703 39.5626 284.209 38.7579 284.473 37.836C284.738 36.9141 284.867 35.9297 284.867 34.8907V17.3516H293.45V37.8906C293.45 39.4376 293.057 40.8984 292.273 42.2657Z" fill="white"/>
<path d="M343.587 48.328V26.5703L331.788 48.328H323.555L311.757 26.5703V48.328H303.172V17.3438H314.836L327.674 40.7968L340.516 17.3438H352.129V48.3203H343.594L343.587 48.328Z" fill="white"/>
<path d="M398.315 39.7811C398.315 40.9844 398.154 42.0311 397.827 42.914C397.506 43.8047 397.049 44.5625 396.473 45.203C395.894 45.8437 395.198 46.3594 394.387 46.7577C393.578 47.1562 392.681 47.4686 391.702 47.7031C390.726 47.9374 389.675 48.1014 388.57 48.1875C387.462 48.2734 386.308 48.3203 385.123 48.3203H362.054V17.3438H384.705C385.612 17.3438 386.534 17.3827 387.447 17.4532C388.36 17.5234 389.243 17.6641 390.075 17.8671C390.909 18.0703 391.686 18.3515 392.401 18.7108C393.115 19.0704 393.738 19.5468 394.276 20.1327C394.805 20.7186 395.221 21.4219 395.526 22.25C395.831 23.078 395.976 24.0545 395.976 25.1796C395.976 27.1954 395.463 28.789 394.443 29.9687C393.427 31.1484 391.824 31.9296 389.634 32.3281C391.173 32.4296 392.495 32.6639 393.603 33.0155C394.701 33.3672 395.607 33.8515 396.297 34.4608C396.986 35.0702 397.499 35.8124 397.818 36.6954C398.139 37.578 398.308 38.6014 398.308 39.7734L398.315 39.7811ZM387.607 26.5234C387.607 26.1328 387.544 25.7578 387.422 25.4062C387.302 25.0546 387.078 24.7421 386.748 24.4687C386.43 24.1952 385.989 23.9766 385.426 23.8126C384.866 23.6483 384.161 23.5624 383.295 23.5624H370.639V29.3828H383.295C384.161 29.3828 384.866 29.3047 385.426 29.1563C385.989 29.0079 386.421 28.8046 386.748 28.5468C387.069 28.289 387.295 27.9843 387.422 27.6329C387.551 27.2812 387.607 26.9063 387.607 26.5157V26.5234ZM389.596 38.8124C389.596 38.1093 389.474 37.5391 389.225 37.1093C388.977 36.6797 388.592 36.3514 388.073 36.1172C387.551 35.8827 386.87 35.7343 386.036 35.6561C385.203 35.5782 384.208 35.5469 383.053 35.5469H370.655V42.1093H383.053C384.208 42.1093 385.203 42.0703 386.036 41.9999C386.87 41.9217 387.551 41.7656 388.073 41.5234C388.592 41.2812 388.986 40.9452 389.225 40.5234C389.467 40.1015 389.596 39.5312 389.596 38.8203V38.8124Z" fill="white"/>
<path d="M406.139 48.328V17.3438H438.321V23.953H414.955V29.0702H437.118V35.6797H414.955V41.7187H438.641V48.328H406.139Z" fill="white"/>
<path d="M455.506 48.328H446.92V17.3438H468.435C470.751 17.3438 472.715 17.578 474.317 18.0391C475.929 18.5078 477.244 19.164 478.252 20.0233C479.262 20.8829 479.992 21.914 480.449 23.1249C480.905 24.3359 481.131 25.6874 481.131 27.1718C481.131 28.4766 480.939 29.625 480.562 30.6015C480.184 31.578 479.671 32.414 479.038 33.117C478.406 33.8203 477.651 34.4062 476.81 34.8829C475.96 35.367 475.07 35.7655 474.125 36.078L484.537 48.3203H474.494L464.866 36.914H455.496V48.3203L455.506 48.328ZM472.458 27.1328C472.458 26.5313 472.378 26.0234 472.218 25.6015C472.057 25.1796 471.777 24.8359 471.375 24.5781C470.975 24.3203 470.437 24.125 469.764 23.9999C469.092 23.8828 468.258 23.8203 467.255 23.8203H455.506V30.4452H467.255C468.258 30.4452 469.092 30.3826 469.764 30.2655C470.437 30.1484 470.966 29.9531 471.375 29.6876C471.777 29.4218 472.057 29.0858 472.218 28.6639C472.378 28.2421 472.458 27.7344 472.458 27.1328Z" fill="white"/>
</svg>
