<svg xmlns="http://www.w3.org/2000/svg"   fill="none"
    style="color:var(--body-text)">
    <mask id="kw92m5ht" width="149" height="23" x="0" y="0" maskUnits="userSpaceOnUse"
        style="mask-type:luminance">
        <path fill="#fff" d="M0 0h149v22.142H0z"></path>
    </mask>
    <g mask="url(#kw92m5ht)">
        <path fill="url(#pn47x3vj)"
            d="m25.033 17.458-4.087 4.382a.95.95 0 0 1-.692.302H.879a.476.476 0 0 1-.348-.798l4.082-4.382a.95.95 0 0 1 .692-.302H24.68a.473.473 0 0 1 .353.798m-4.087-8.827a.96.96 0 0 0-.692-.302H.879a.475.475 0 0 0-.348.798l4.082 4.385a.96.96 0 0 0 .692.302H24.68a.476.476 0 0 0 .346-.798zM.879 5.483h19.375a.95.95 0 0 0 .692-.302L25.033.798a.475.475 0 0 0-.09-.724A.47.47 0 0 0 24.68 0H5.305a.95.95 0 0 0-.692.302L.531 4.685a.475.475 0 0 0 .348.798"></path>
           </g>
    <defs>
        <linearGradient id="pn47x3vj" x1="2.494" x2="22.809" y1="22.671" y2="-0.233"
            gradientUnits="userSpaceOnUse">
            <stop offset="0.08" stop-color="#9945FF"></stop>
            <stop offset="0.3" stop-color="#8752F3"></stop>
            <stop offset="0.5" stop-color="#5497D5"></stop>
            <stop offset="0.6" stop-color="#43B4CA"></stop>
            <stop offset="0.72" stop-color="#28E0B9"></stop>
            <stop offset="0.97" stop-color="#19FB9B"></stop>
        </linearGradient>
    </defs>
</svg>